<svg width="1440" height="750" viewBox="0 0 1440 750" fill="none" xmlns="http://www.w3.org/2000/svg">
<g clip-path="url(#clip0_406_83557)">
<rect width="1440" height="750" fill="white"/>
<path d="M-24 562.842V342.156H71.2572C87.6363 342.156 101.968 345.137 114.252 351.099C126.537 357.062 136.091 365.647 142.916 376.853C149.74 388.06 153.153 401.494 153.153 417.154C153.153 432.959 149.633 446.285 142.592 457.132C135.624 467.98 125.818 476.169 113.175 481.701C100.603 487.232 85.9122 489.998 69.1021 489.998H12.2064V443.447H57.0333C64.0734 443.447 70.0719 442.585 75.0287 440.861C80.0574 439.065 83.9007 436.227 86.5588 432.348C89.2886 428.469 90.6535 423.404 90.6535 417.154C90.6535 410.833 89.2886 405.696 86.5588 401.745C83.9007 397.722 80.0574 394.777 75.0287 392.909C70.0719 390.969 64.0734 390 57.0333 390H35.9129V562.842H-24ZM105.308 461.55L160.48 562.842H95.3948L41.5163 461.55H105.308Z" fill="black"/>
<path d="M169.588 562.842V342.156H328.637V390.431H229.501V428.361H320.448V476.636H229.501V514.567H328.206V562.842H169.588Z" fill="black"/>
<path d="M405.281 562.842L340.196 342.156H407.006L437.178 477.929H438.902L474.677 342.156H527.262L563.038 478.36H564.762L594.934 342.156H661.743L596.658 562.842H539.331L501.832 439.568H500.108L462.608 562.842H405.281Z" fill="black"/>
<path d="M703.582 562.842H638.928L711.772 342.156H793.667L866.511 562.842H801.857L753.581 402.931H751.857L703.582 562.842ZM691.513 475.774H813.063V520.601H691.513V475.774Z" fill="black"/>
<path d="M878.663 562.842V342.156H973.92C990.299 342.156 1004.63 345.137 1016.91 351.099C1029.2 357.062 1038.75 365.647 1045.58 376.853C1052.4 388.06 1055.82 401.494 1055.82 417.154C1055.82 432.959 1052.3 446.285 1045.25 457.132C1038.29 467.98 1028.48 476.169 1015.84 481.701C1003.27 487.232 988.575 489.998 971.765 489.998H914.869V443.447H959.696C966.736 443.447 972.735 442.585 977.691 440.861C982.72 439.065 986.563 436.227 989.221 432.348C991.951 428.469 993.316 423.404 993.316 417.154C993.316 410.833 991.951 405.696 989.221 401.745C986.563 397.722 982.72 394.777 977.691 392.909C972.735 390.969 966.736 390 959.696 390H938.576V562.842H878.663ZM1007.97 461.55L1063.14 562.842H998.057L944.179 461.55H1007.97Z" fill="black"/>
<path d="M1157.16 562.842H1072.25V342.156H1156.3C1179 342.156 1198.61 346.574 1215.14 355.41C1231.73 364.174 1244.52 376.817 1253.5 393.34C1262.55 409.791 1267.08 429.511 1267.08 452.499C1267.08 475.487 1262.59 495.242 1253.61 511.765C1244.63 528.216 1231.91 540.86 1215.46 549.696C1199.01 558.46 1179.58 562.842 1157.16 562.842ZM1132.16 511.981H1155.01C1165.93 511.981 1175.23 510.221 1182.92 506.701C1190.68 503.18 1196.57 497.11 1200.59 488.49C1204.68 479.869 1206.73 467.872 1206.73 452.499C1206.73 437.125 1204.65 425.128 1200.48 416.508C1196.39 407.887 1190.35 401.817 1182.38 398.297C1174.48 394.777 1164.78 393.017 1153.28 393.017H1132.16V511.981Z" fill="black"/>
<path d="M1404.66 411.12C1404.08 403.936 1401.39 398.333 1396.57 394.31C1391.83 390.287 1384.61 388.276 1374.92 388.276C1368.74 388.276 1363.67 389.03 1359.72 390.538C1355.84 391.975 1352.97 393.951 1351.1 396.465C1349.23 398.979 1348.26 401.853 1348.19 405.086C1348.05 407.744 1348.51 410.15 1349.59 412.305C1350.74 414.389 1352.54 416.292 1354.98 418.016C1357.42 419.669 1360.55 421.177 1364.35 422.542C1368.16 423.907 1372.69 425.128 1377.93 426.206L1396.04 430.085C1408.25 432.671 1418.7 436.084 1427.39 440.322C1436.09 444.561 1443.2 449.553 1448.73 455.3C1454.26 460.976 1458.32 467.369 1460.91 474.481C1463.56 481.593 1464.93 489.352 1465 497.757C1464.93 512.268 1461.3 524.552 1454.12 534.61C1446.93 544.667 1436.66 552.318 1423.3 557.562C1410.01 562.806 1394.02 565.428 1375.35 565.428C1356.17 565.428 1339.43 562.591 1325.13 556.915C1310.91 551.24 1299.84 542.512 1291.94 530.73C1284.11 518.877 1280.16 503.719 1280.09 485.257H1336.98C1337.34 492.01 1339.03 497.685 1342.05 502.283C1345.07 506.88 1349.3 510.364 1354.76 512.735C1360.3 515.106 1366.87 516.291 1374.48 516.291C1380.88 516.291 1386.23 515.501 1390.54 513.92C1394.85 512.34 1398.12 510.149 1400.35 507.347C1402.57 504.545 1403.72 501.349 1403.79 497.757C1403.72 494.38 1402.61 491.435 1400.45 488.921C1398.37 486.334 1394.92 484.036 1390.11 482.024C1385.3 479.941 1378.79 478.001 1370.6 476.205L1348.62 471.464C1329.08 467.226 1313.67 460.149 1302.39 450.236C1291.19 440.25 1285.62 426.637 1285.69 409.396C1285.62 395.387 1289.36 383.139 1296.9 372.651C1304.51 362.091 1315.04 353.865 1328.47 347.974C1341.98 342.084 1357.46 339.138 1374.92 339.138C1392.73 339.138 1408.14 342.12 1421.14 348.082C1434.15 354.045 1444.17 362.45 1451.21 373.297C1458.32 384.073 1461.91 396.681 1461.98 411.12H1404.66Z" fill="black"/>
<mask id="path-2-outside-1_406_83557" maskUnits="userSpaceOnUse" x="-27" y="573.06" width="1495" height="232" fill="black">
<rect fill="white" x="-27" y="573.06" width="1495" height="232"/>
<path d="M-24 799.763V579.077H71.2572C87.6363 579.077 101.968 582.058 114.252 588.021C126.537 593.983 136.091 602.568 142.916 613.775C149.74 624.982 153.153 638.415 153.153 654.076C153.153 669.88 149.633 683.206 142.592 694.054C135.624 704.901 125.818 713.091 113.175 718.622C100.603 724.154 85.9122 726.92 69.1021 726.92H12.2064V680.369H57.0333C64.0734 680.369 70.0719 679.507 75.0287 677.782C80.0574 675.987 83.9007 673.149 86.5588 669.27C89.2886 665.39 90.6535 660.326 90.6535 654.076C90.6535 647.754 89.2886 642.618 86.5588 638.667C83.9007 634.644 80.0574 631.698 75.0287 629.831C70.0719 627.891 64.0734 626.921 57.0333 626.921H35.9129V799.763H-24ZM105.308 698.472L160.48 799.763H95.3948L41.5163 698.472H105.308Z"/>
<path d="M169.588 799.763V579.077H328.637V627.352H229.501V665.283H320.448V713.558H229.501V751.488H328.206V799.763H169.588Z"/>
<path d="M405.281 799.763L340.196 579.077H407.006L437.178 714.851H438.902L474.677 579.077H527.262L563.038 715.282H564.762L594.934 579.077H661.743L596.658 799.763H539.331L501.832 676.489H500.108L462.608 799.763H405.281Z"/>
<path d="M703.582 799.763H638.928L711.772 579.077H793.667L866.511 799.763H801.857L753.581 639.852H751.857L703.582 799.763ZM691.513 712.696H813.063V757.523H691.513V712.696Z"/>
<path d="M878.663 799.763V579.077H973.92C990.299 579.077 1004.63 582.058 1016.91 588.021C1029.2 593.983 1038.75 602.568 1045.58 613.775C1052.4 624.982 1055.82 638.415 1055.82 654.076C1055.82 669.88 1052.3 683.206 1045.25 694.054C1038.29 704.901 1028.48 713.091 1015.84 718.622C1003.27 724.154 988.575 726.92 971.765 726.92H914.869V680.369H959.696C966.736 680.369 972.735 679.507 977.691 677.782C982.72 675.987 986.563 673.149 989.221 669.27C991.951 665.39 993.316 660.326 993.316 654.076C993.316 647.754 991.951 642.618 989.221 638.667C986.563 634.644 982.72 631.698 977.691 629.831C972.735 627.891 966.736 626.921 959.696 626.921H938.576V799.763H878.663ZM1007.97 698.472L1063.14 799.763H998.057L944.179 698.472H1007.97Z"/>
<path d="M1157.16 799.763H1072.25V579.077H1156.3C1179 579.077 1198.61 583.495 1215.14 592.331C1231.73 601.095 1244.52 613.739 1253.5 630.262C1262.55 646.713 1267.08 666.432 1267.08 689.42C1267.08 712.408 1262.59 732.164 1253.61 748.687C1244.63 765.138 1231.91 777.781 1215.46 786.617C1199.01 795.381 1179.58 799.763 1157.16 799.763ZM1132.16 748.902H1155.01C1165.93 748.902 1175.23 747.142 1182.92 743.622C1190.68 740.102 1196.57 734.032 1200.59 725.411C1204.68 716.791 1206.73 704.794 1206.73 689.42C1206.73 674.047 1204.65 662.05 1200.48 653.429C1196.39 644.809 1190.35 638.739 1182.38 635.218C1174.48 631.698 1164.78 629.938 1153.28 629.938H1132.16V748.902Z"/>
<path d="M1404.66 648.042C1404.08 640.858 1401.39 635.254 1396.57 631.231C1391.83 627.208 1384.61 625.197 1374.92 625.197C1368.74 625.197 1363.67 625.951 1359.72 627.46C1355.84 628.897 1352.97 630.872 1351.1 633.387C1349.23 635.901 1348.26 638.774 1348.19 642.007C1348.05 644.665 1348.51 647.072 1349.59 649.227C1350.74 651.31 1352.54 653.214 1354.98 654.938C1357.42 656.59 1360.55 658.099 1364.35 659.464C1368.16 660.829 1372.69 662.05 1377.93 663.128L1396.04 667.007C1408.25 669.593 1418.7 673.005 1427.39 677.244C1436.09 681.482 1443.2 686.475 1448.73 692.222C1454.26 697.897 1458.32 704.291 1460.91 711.403C1463.56 718.515 1464.93 726.273 1465 734.678C1464.93 749.19 1461.3 761.474 1454.12 771.531C1446.93 781.588 1436.66 789.239 1423.3 794.483C1410.01 799.728 1394.02 802.35 1375.35 802.35C1356.17 802.35 1339.43 799.512 1325.13 793.837C1310.91 788.162 1299.84 779.433 1291.94 767.652C1284.11 755.799 1280.16 740.641 1280.09 722.178H1336.98C1337.34 728.931 1339.03 734.606 1342.05 739.204C1345.07 743.802 1349.3 747.286 1354.76 749.656C1360.3 752.027 1366.87 753.212 1374.48 753.212C1380.88 753.212 1386.23 752.422 1390.54 750.842C1394.85 749.261 1398.12 747.07 1400.35 744.269C1402.57 741.467 1403.72 738.27 1403.79 734.678C1403.72 731.302 1402.61 728.356 1400.45 725.842C1398.37 723.256 1394.92 720.957 1390.11 718.946C1385.3 716.862 1378.79 714.923 1370.6 713.127L1348.62 708.385C1329.08 704.147 1313.67 697.071 1302.39 687.157C1291.19 677.172 1285.62 663.559 1285.69 646.317C1285.62 632.309 1289.36 620.061 1296.9 609.572C1304.51 599.012 1315.04 590.787 1328.47 584.896C1341.98 579.005 1357.46 576.06 1374.92 576.06C1392.73 576.06 1408.14 579.041 1421.14 585.004C1434.15 590.966 1444.17 599.371 1451.21 610.219C1458.32 620.995 1461.91 633.602 1461.98 648.042H1404.66Z"/>
</mask>
<path d="M-24 799.763V579.077H71.2572C87.6363 579.077 101.968 582.058 114.252 588.021C126.537 593.983 136.091 602.568 142.916 613.775C149.74 624.982 153.153 638.415 153.153 654.076C153.153 669.88 149.633 683.206 142.592 694.054C135.624 704.901 125.818 713.091 113.175 718.622C100.603 724.154 85.9122 726.92 69.1021 726.92H12.2064V680.369H57.0333C64.0734 680.369 70.0719 679.507 75.0287 677.782C80.0574 675.987 83.9007 673.149 86.5588 669.27C89.2886 665.39 90.6535 660.326 90.6535 654.076C90.6535 647.754 89.2886 642.618 86.5588 638.667C83.9007 634.644 80.0574 631.698 75.0287 629.831C70.0719 627.891 64.0734 626.921 57.0333 626.921H35.9129V799.763H-24ZM105.308 698.472L160.48 799.763H95.3948L41.5163 698.472H105.308Z" stroke="black" stroke-opacity="0.3" stroke-width="4.88865" mask="url(#path-2-outside-1_406_83557)"/>
<path d="M169.588 799.763V579.077H328.637V627.352H229.501V665.283H320.448V713.558H229.501V751.488H328.206V799.763H169.588Z" stroke="black" stroke-opacity="0.3" stroke-width="4.88865" mask="url(#path-2-outside-1_406_83557)"/>
<path d="M405.281 799.763L340.196 579.077H407.006L437.178 714.851H438.902L474.677 579.077H527.262L563.038 715.282H564.762L594.934 579.077H661.743L596.658 799.763H539.331L501.832 676.489H500.108L462.608 799.763H405.281Z" stroke="black" stroke-opacity="0.3" stroke-width="4.88865" mask="url(#path-2-outside-1_406_83557)"/>
<path d="M703.582 799.763H638.928L711.772 579.077H793.667L866.511 799.763H801.857L753.581 639.852H751.857L703.582 799.763ZM691.513 712.696H813.063V757.523H691.513V712.696Z" stroke="black" stroke-opacity="0.3" stroke-width="4.88865" mask="url(#path-2-outside-1_406_83557)"/>
<path d="M878.663 799.763V579.077H973.92C990.299 579.077 1004.63 582.058 1016.91 588.021C1029.2 593.983 1038.75 602.568 1045.58 613.775C1052.4 624.982 1055.82 638.415 1055.82 654.076C1055.82 669.88 1052.3 683.206 1045.25 694.054C1038.29 704.901 1028.48 713.091 1015.84 718.622C1003.27 724.154 988.575 726.92 971.765 726.92H914.869V680.369H959.696C966.736 680.369 972.735 679.507 977.691 677.782C982.72 675.987 986.563 673.149 989.221 669.27C991.951 665.39 993.316 660.326 993.316 654.076C993.316 647.754 991.951 642.618 989.221 638.667C986.563 634.644 982.72 631.698 977.691 629.831C972.735 627.891 966.736 626.921 959.696 626.921H938.576V799.763H878.663ZM1007.97 698.472L1063.14 799.763H998.057L944.179 698.472H1007.97Z" stroke="black" stroke-opacity="0.3" stroke-width="4.88865" mask="url(#path-2-outside-1_406_83557)"/>
<path d="M1157.16 799.763H1072.25V579.077H1156.3C1179 579.077 1198.61 583.495 1215.14 592.331C1231.73 601.095 1244.52 613.739 1253.5 630.262C1262.55 646.713 1267.08 666.432 1267.08 689.42C1267.08 712.408 1262.59 732.164 1253.61 748.687C1244.63 765.138 1231.91 777.781 1215.46 786.617C1199.01 795.381 1179.58 799.763 1157.16 799.763ZM1132.16 748.902H1155.01C1165.93 748.902 1175.23 747.142 1182.92 743.622C1190.68 740.102 1196.57 734.032 1200.59 725.411C1204.68 716.791 1206.73 704.794 1206.73 689.42C1206.73 674.047 1204.65 662.05 1200.48 653.429C1196.39 644.809 1190.35 638.739 1182.38 635.218C1174.48 631.698 1164.78 629.938 1153.28 629.938H1132.16V748.902Z" stroke="black" stroke-opacity="0.3" stroke-width="4.88865" mask="url(#path-2-outside-1_406_83557)"/>
<path d="M1404.66 648.042C1404.08 640.858 1401.39 635.254 1396.57 631.231C1391.83 627.208 1384.61 625.197 1374.92 625.197C1368.74 625.197 1363.67 625.951 1359.72 627.46C1355.84 628.897 1352.97 630.872 1351.1 633.387C1349.23 635.901 1348.26 638.774 1348.19 642.007C1348.05 644.665 1348.51 647.072 1349.59 649.227C1350.74 651.31 1352.54 653.214 1354.98 654.938C1357.42 656.59 1360.55 658.099 1364.35 659.464C1368.16 660.829 1372.69 662.05 1377.93 663.128L1396.04 667.007C1408.25 669.593 1418.7 673.005 1427.39 677.244C1436.09 681.482 1443.2 686.475 1448.73 692.222C1454.26 697.897 1458.32 704.291 1460.91 711.403C1463.56 718.515 1464.93 726.273 1465 734.678C1464.93 749.19 1461.3 761.474 1454.12 771.531C1446.93 781.588 1436.66 789.239 1423.3 794.483C1410.01 799.728 1394.02 802.35 1375.35 802.35C1356.17 802.35 1339.43 799.512 1325.13 793.837C1310.91 788.162 1299.84 779.433 1291.94 767.652C1284.11 755.799 1280.16 740.641 1280.09 722.178H1336.98C1337.34 728.931 1339.03 734.606 1342.05 739.204C1345.07 743.802 1349.3 747.286 1354.76 749.656C1360.3 752.027 1366.87 753.212 1374.48 753.212C1380.88 753.212 1386.23 752.422 1390.54 750.842C1394.85 749.261 1398.12 747.07 1400.35 744.269C1402.57 741.467 1403.72 738.27 1403.79 734.678C1403.72 731.302 1402.61 728.356 1400.45 725.842C1398.37 723.256 1394.92 720.957 1390.11 718.946C1385.3 716.862 1378.79 714.923 1370.6 713.127L1348.62 708.385C1329.08 704.147 1313.67 697.071 1302.39 687.157C1291.19 677.172 1285.62 663.559 1285.69 646.317C1285.62 632.309 1289.36 620.061 1296.9 609.572C1304.51 599.012 1315.04 590.787 1328.47 584.896C1341.98 579.005 1357.46 576.06 1374.92 576.06C1392.73 576.06 1408.14 579.041 1421.14 585.004C1434.15 590.966 1444.17 599.371 1451.21 610.219C1458.32 620.995 1461.91 633.602 1461.98 648.042H1404.66Z" stroke="black" stroke-opacity="0.3" stroke-width="4.88865" mask="url(#path-2-outside-1_406_83557)"/>
<path d="M141.612 219.905H94.7656C94.4333 216.029 93.5474 212.513 92.1076 209.357C90.7233 206.2 88.7852 203.487 86.2934 201.217C83.8569 198.891 80.8944 197.119 77.4058 195.901C73.9173 194.627 69.958 193.99 65.5281 193.99C57.7757 193.99 51.2139 195.873 45.8426 199.639C40.5267 203.404 36.4844 208.803 33.7157 215.835C31.0024 222.868 29.6457 231.312 29.6457 241.169C29.6457 251.579 31.0301 260.301 33.7988 267.333C36.6228 274.31 40.6928 279.571 46.0087 283.115C51.3246 286.603 57.7204 288.348 65.1959 288.348C69.4597 288.348 73.2805 287.822 76.6583 286.77C80.0361 285.662 82.9709 284.084 85.4628 282.035C87.9546 279.986 89.9757 277.522 91.5262 274.643C93.1321 271.708 94.2119 268.413 94.7656 264.758L141.612 265.091C141.058 272.289 139.037 279.626 135.549 287.102C132.06 294.522 127.104 301.388 120.681 307.701C114.313 313.958 106.422 318.997 97.0082 322.818C87.5946 326.639 76.6583 328.549 64.1991 328.549C48.5836 328.549 34.574 325.199 22.1702 318.499C9.82179 311.799 0.0482726 301.942 -7.15036 288.929C-14.2936 275.916 -17.8652 259.996 -17.8652 241.169C-17.8652 222.231 -14.2105 206.283 -6.90117 193.326C0.408203 180.313 10.2648 170.484 22.6686 163.839C35.0724 157.139 48.9159 153.789 64.1991 153.789C74.9417 153.789 84.826 155.256 93.8519 158.191C102.878 161.126 110.796 165.417 117.607 171.066C124.418 176.658 129.9 183.552 134.053 191.748C138.207 199.943 140.726 209.329 141.612 219.905Z" fill="black"/>
<path d="M320.34 241.169C320.34 260.107 316.658 276.082 309.293 289.095C301.929 302.053 291.989 311.882 279.474 318.582C266.96 325.227 253.006 328.549 237.612 328.549C222.107 328.549 208.097 325.199 195.583 318.499C183.123 311.743 173.212 301.887 165.847 288.929C158.537 275.916 154.883 259.996 154.883 241.169C154.883 222.231 158.537 206.283 165.847 193.326C173.212 180.313 183.123 170.484 195.583 163.839C208.097 157.139 222.107 153.789 237.612 153.789C253.006 153.789 266.96 157.139 279.474 163.839C291.989 170.484 301.929 180.313 309.293 193.326C316.658 206.283 320.34 222.231 320.34 241.169ZM272.829 241.169C272.829 230.98 271.473 222.397 268.759 215.42C266.102 208.388 262.142 203.072 256.882 199.472C251.677 195.818 245.253 193.99 237.612 193.99C229.97 193.99 223.519 195.818 218.258 199.472C213.053 203.072 209.094 208.388 206.381 215.42C203.723 222.397 202.394 230.98 202.394 241.169C202.394 251.358 203.723 259.969 206.381 267.001C209.094 273.978 213.053 279.294 218.258 282.949C223.519 286.548 229.97 288.348 237.612 288.348C245.253 288.348 251.677 286.548 256.882 282.949C262.142 279.294 266.102 273.978 268.759 267.001C271.473 259.969 272.829 251.358 272.829 241.169Z" fill="black"/>
<path d="M334.691 156.115H392.169L431.706 252.465H433.7L473.237 156.115H530.715V326.224H485.53V227.879H484.201L446.325 324.895H419.081L381.205 227.215H379.876V326.224H334.691V156.115Z" fill="black"/>
<path d="M545.585 156.115H603.063L642.6 252.465H644.593L684.13 156.115H741.609V326.224H696.424V227.879H695.095L657.219 324.895H629.975L592.099 227.215H590.77V326.224H545.585V156.115Z" fill="black"/>
<path d="M857.148 156.115H903.33V265.091C903.33 278.048 900.229 289.261 894.027 298.73C887.881 308.144 879.298 315.426 868.279 320.575C857.259 325.67 844.468 328.217 829.904 328.217C815.23 328.217 802.383 325.67 791.364 320.575C780.344 315.426 771.762 308.144 765.615 298.73C759.524 289.261 756.478 278.048 756.478 265.091V156.115H802.66V261.104C802.66 266.364 803.823 271.071 806.149 275.224C808.475 279.322 811.686 282.533 815.784 284.859C819.937 287.185 824.644 288.348 829.904 288.348C835.22 288.348 839.927 287.185 844.025 284.859C848.122 282.533 851.334 279.322 853.66 275.224C855.985 271.071 857.148 266.364 857.148 261.104V156.115Z" fill="black"/>
<path d="M1065.45 156.115V326.224H1026.91L965.441 236.85H964.444V326.224H918.262V156.115H957.467L1017.94 245.156H1019.26V156.115H1065.45Z" fill="black"/>
<path d="M1126.46 156.115V326.224H1080.27V156.115H1126.46Z" fill="black"/>
<path d="M1136.67 193.326V156.115H1284.52V193.326H1233.36V326.224H1187.84V193.326H1136.67Z" fill="black"/>
<path d="M1287.91 156.115H1339.41L1372.63 225.221H1373.96L1407.19 156.115H1458.68L1396.22 272.732V326.224H1350.37V272.732L1287.91 156.115Z" fill="black"/>
<mask id="path-4-outside-2_406_83557" maskUnits="userSpaceOnUse" x="-20.8652" y="-34.5607" width="1484" height="181" fill="black">
<rect fill="white" x="-20.8652" y="-34.5607" width="1484" height="181"/>
<path d="M141.612 34.556H94.7656C94.4333 30.6798 93.5474 27.1635 92.1076 24.0072C90.7233 20.8509 88.7852 18.1375 86.2934 15.8672C83.8569 13.5415 80.8944 11.7695 77.4058 10.5513C73.9173 9.2777 69.958 8.6409 65.5281 8.6409C57.7757 8.6409 51.2139 10.5236 45.8426 14.2891C40.5267 18.0545 36.4844 23.4535 33.7157 30.486C31.0024 37.5185 29.6457 45.963 29.6457 55.8196C29.6457 66.2299 31.0301 74.9513 33.7988 81.9838C36.6228 88.961 40.6928 94.2215 46.0087 97.7654C51.3246 101.254 57.7204 102.998 65.1959 102.998C69.4597 102.998 73.2805 102.472 76.6583 101.42C80.0361 100.313 82.9709 98.7345 85.4628 96.6856C87.9546 94.6368 89.9757 92.1727 91.5262 89.2932C93.1321 86.3584 94.2119 83.0636 94.7656 79.4089L141.612 79.7412C141.058 86.9398 139.037 94.2769 135.549 101.752C132.06 109.172 127.104 116.039 120.681 122.352C114.313 128.609 106.422 133.648 97.0082 137.469C87.5946 141.289 76.6583 143.2 64.1991 143.2C48.5836 143.2 34.574 139.85 22.1702 133.149C9.82179 126.449 0.0482726 116.593 -7.15036 103.58C-14.2936 90.5668 -17.8652 74.6468 -17.8652 55.8196C-17.8652 36.8817 -14.2105 20.9339 -6.90117 7.97641C0.408203 -5.0365 10.2648 -14.8654 22.6686 -21.5103C35.0724 -28.2105 48.9159 -31.5607 64.1991 -31.5607C74.9417 -31.5607 84.826 -30.0933 93.8519 -27.1584C102.878 -24.2236 110.796 -19.9321 117.607 -14.284C124.418 -8.69118 129.9 -1.79711 134.053 6.39825C138.207 14.5936 140.726 23.9795 141.612 34.556Z"/>
<path d="M320.34 55.8196C320.34 74.7575 316.658 90.7329 309.293 103.746C301.929 116.703 291.989 126.532 279.474 133.233C266.96 139.877 253.006 143.2 237.612 143.2C222.107 143.2 208.097 139.85 195.583 133.149C183.123 126.394 173.212 116.537 165.847 103.58C158.537 90.5668 154.883 74.6468 154.883 55.8196C154.883 36.8817 158.537 20.9339 165.847 7.97641C173.212 -5.0365 183.123 -14.8654 195.583 -21.5103C208.097 -28.2105 222.107 -31.5607 237.612 -31.5607C253.006 -31.5607 266.96 -28.2105 279.474 -21.5103C291.989 -14.8654 301.929 -5.0365 309.293 7.97641C316.658 20.9339 320.34 36.8817 320.34 55.8196ZM272.829 55.8196C272.829 45.6308 271.473 37.0478 268.759 30.0707C266.102 23.0381 262.142 17.7222 256.882 14.1229C251.677 10.4682 245.253 8.6409 237.612 8.6409C229.97 8.6409 223.519 10.4682 218.258 14.1229C213.053 17.7222 209.094 23.0381 206.381 30.0707C203.723 37.0478 202.394 45.6308 202.394 55.8196C202.394 66.0084 203.723 74.6191 206.381 81.6516C209.094 88.6287 213.053 93.9446 218.258 97.5993C223.519 101.199 229.97 102.998 237.612 102.998C245.253 102.998 251.677 101.199 256.882 97.5993C262.142 93.9446 266.102 88.6287 268.759 81.6516C271.473 74.6191 272.829 66.0084 272.829 55.8196Z"/>
<path d="M334.691 -29.235H392.169L431.706 67.1159H433.7L473.237 -29.235H530.715V140.874H485.53V42.5298H484.201L446.325 139.545H419.081L381.205 41.8653H379.876V140.874H334.691V-29.235Z"/>
<path d="M545.585 -29.235H603.063L642.6 67.1159H644.593L684.13 -29.235H741.609V140.874H696.424V42.5298H695.095L657.219 139.545H629.975L592.099 41.8653H590.77V140.874H545.585V-29.235Z"/>
<path d="M857.148 -29.235H903.33V79.7412C903.33 92.6987 900.229 103.912 894.027 113.381C887.881 122.795 879.298 130.076 868.279 135.226C857.259 140.32 844.468 142.868 829.904 142.868C815.23 142.868 802.383 140.32 791.364 135.226C780.344 130.076 771.762 122.795 765.615 113.381C759.524 103.912 756.478 92.6987 756.478 79.7412V-29.235H802.66V75.7542C802.66 81.0148 803.823 85.7216 806.149 89.8746C808.475 93.9723 811.686 97.184 815.784 99.5097C819.937 101.835 824.644 102.998 829.904 102.998C835.22 102.998 839.927 101.835 844.025 99.5097C848.122 97.184 851.334 93.9723 853.66 89.8746C855.985 85.7216 857.148 81.0148 857.148 75.7542V-29.235Z"/>
<path d="M1065.45 -29.235V140.874H1026.91L965.441 51.5004H964.444V140.874H918.262V-29.235H957.467L1017.94 59.8065H1019.26V-29.235H1065.45Z"/>
<path d="M1126.46 -29.235V140.874H1080.27V-29.235H1126.46Z"/>
<path d="M1136.67 7.97641V-29.235H1284.52V7.97641H1233.36V140.874H1187.84V7.97641H1136.67Z"/>
<path d="M1287.91 -29.235H1339.41L1372.63 39.8719H1373.96L1407.19 -29.235H1458.68L1396.22 87.3828V140.874H1350.37V87.3828L1287.91 -29.235Z"/>
</mask>
<path d="M141.612 34.556H94.7656C94.4333 30.6798 93.5474 27.1635 92.1076 24.0072C90.7233 20.8509 88.7852 18.1375 86.2934 15.8672C83.8569 13.5415 80.8944 11.7695 77.4058 10.5513C73.9173 9.2777 69.958 8.6409 65.5281 8.6409C57.7757 8.6409 51.2139 10.5236 45.8426 14.2891C40.5267 18.0545 36.4844 23.4535 33.7157 30.486C31.0024 37.5185 29.6457 45.963 29.6457 55.8196C29.6457 66.2299 31.0301 74.9513 33.7988 81.9838C36.6228 88.961 40.6928 94.2215 46.0087 97.7654C51.3246 101.254 57.7204 102.998 65.1959 102.998C69.4597 102.998 73.2805 102.472 76.6583 101.42C80.0361 100.313 82.9709 98.7345 85.4628 96.6856C87.9546 94.6368 89.9757 92.1727 91.5262 89.2932C93.1321 86.3584 94.2119 83.0636 94.7656 79.4089L141.612 79.7412C141.058 86.9398 139.037 94.2769 135.549 101.752C132.06 109.172 127.104 116.039 120.681 122.352C114.313 128.609 106.422 133.648 97.0082 137.469C87.5946 141.289 76.6583 143.2 64.1991 143.2C48.5836 143.2 34.574 139.85 22.1702 133.149C9.82179 126.449 0.0482726 116.593 -7.15036 103.58C-14.2936 90.5668 -17.8652 74.6468 -17.8652 55.8196C-17.8652 36.8817 -14.2105 20.9339 -6.90117 7.97641C0.408203 -5.0365 10.2648 -14.8654 22.6686 -21.5103C35.0724 -28.2105 48.9159 -31.5607 64.1991 -31.5607C74.9417 -31.5607 84.826 -30.0933 93.8519 -27.1584C102.878 -24.2236 110.796 -19.9321 117.607 -14.284C124.418 -8.69118 129.9 -1.79711 134.053 6.39825C138.207 14.5936 140.726 23.9795 141.612 34.556Z" stroke="black" stroke-opacity="0.3" stroke-width="4.88865" mask="url(#path-4-outside-2_406_83557)"/>
<path d="M320.34 55.8196C320.34 74.7575 316.658 90.7329 309.293 103.746C301.929 116.703 291.989 126.532 279.474 133.233C266.96 139.877 253.006 143.2 237.612 143.2C222.107 143.2 208.097 139.85 195.583 133.149C183.123 126.394 173.212 116.537 165.847 103.58C158.537 90.5668 154.883 74.6468 154.883 55.8196C154.883 36.8817 158.537 20.9339 165.847 7.97641C173.212 -5.0365 183.123 -14.8654 195.583 -21.5103C208.097 -28.2105 222.107 -31.5607 237.612 -31.5607C253.006 -31.5607 266.96 -28.2105 279.474 -21.5103C291.989 -14.8654 301.929 -5.0365 309.293 7.97641C316.658 20.9339 320.34 36.8817 320.34 55.8196ZM272.829 55.8196C272.829 45.6308 271.473 37.0478 268.759 30.0707C266.102 23.0381 262.142 17.7222 256.882 14.1229C251.677 10.4682 245.253 8.6409 237.612 8.6409C229.97 8.6409 223.519 10.4682 218.258 14.1229C213.053 17.7222 209.094 23.0381 206.381 30.0707C203.723 37.0478 202.394 45.6308 202.394 55.8196C202.394 66.0084 203.723 74.6191 206.381 81.6516C209.094 88.6287 213.053 93.9446 218.258 97.5993C223.519 101.199 229.97 102.998 237.612 102.998C245.253 102.998 251.677 101.199 256.882 97.5993C262.142 93.9446 266.102 88.6287 268.759 81.6516C271.473 74.6191 272.829 66.0084 272.829 55.8196Z" stroke="black" stroke-opacity="0.3" stroke-width="4.88865" mask="url(#path-4-outside-2_406_83557)"/>
<path d="M334.691 -29.235H392.169L431.706 67.1159H433.7L473.237 -29.235H530.715V140.874H485.53V42.5298H484.201L446.325 139.545H419.081L381.205 41.8653H379.876V140.874H334.691V-29.235Z" stroke="black" stroke-opacity="0.3" stroke-width="4.88865" mask="url(#path-4-outside-2_406_83557)"/>
<path d="M545.585 -29.235H603.063L642.6 67.1159H644.593L684.13 -29.235H741.609V140.874H696.424V42.5298H695.095L657.219 139.545H629.975L592.099 41.8653H590.77V140.874H545.585V-29.235Z" stroke="black" stroke-opacity="0.3" stroke-width="4.88865" mask="url(#path-4-outside-2_406_83557)"/>
<path d="M857.148 -29.235H903.33V79.7412C903.33 92.6987 900.229 103.912 894.027 113.381C887.881 122.795 879.298 130.076 868.279 135.226C857.259 140.32 844.468 142.868 829.904 142.868C815.23 142.868 802.383 140.32 791.364 135.226C780.344 130.076 771.762 122.795 765.615 113.381C759.524 103.912 756.478 92.6987 756.478 79.7412V-29.235H802.66V75.7542C802.66 81.0148 803.823 85.7216 806.149 89.8746C808.475 93.9723 811.686 97.184 815.784 99.5097C819.937 101.835 824.644 102.998 829.904 102.998C835.22 102.998 839.927 101.835 844.025 99.5097C848.122 97.184 851.334 93.9723 853.66 89.8746C855.985 85.7216 857.148 81.0148 857.148 75.7542V-29.235Z" stroke="black" stroke-opacity="0.3" stroke-width="4.88865" mask="url(#path-4-outside-2_406_83557)"/>
<path d="M1065.45 -29.235V140.874H1026.91L965.441 51.5004H964.444V140.874H918.262V-29.235H957.467L1017.94 59.8065H1019.26V-29.235H1065.45Z" stroke="black" stroke-opacity="0.3" stroke-width="4.88865" mask="url(#path-4-outside-2_406_83557)"/>
<path d="M1126.46 -29.235V140.874H1080.27V-29.235H1126.46Z" stroke="black" stroke-opacity="0.3" stroke-width="4.88865" mask="url(#path-4-outside-2_406_83557)"/>
<path d="M1136.67 7.97641V-29.235H1284.52V7.97641H1233.36V140.874H1187.84V7.97641H1136.67Z" stroke="black" stroke-opacity="0.3" stroke-width="4.88865" mask="url(#path-4-outside-2_406_83557)"/>
<path d="M1287.91 -29.235H1339.41L1372.63 39.8719H1373.96L1407.19 -29.235H1458.68L1396.22 87.3828V140.874H1350.37V87.3828L1287.91 -29.235Z" stroke="black" stroke-opacity="0.3" stroke-width="4.88865" mask="url(#path-4-outside-2_406_83557)"/>
</g>
<defs>
<clipPath id="clip0_406_83557">
<rect width="1440" height="750" fill="white"/>
</clipPath>
</defs>
</svg>
