<svg width="170" height="20" viewBox="0 0 170 20" fill="none" xmlns="http://www.w3.org/2000/svg">
<path fill-rule="evenodd" clip-rule="evenodd" d="M16.6559 10.8758L23.7296 17.9167C23.8145 18.0001 23.8821 18.0992 23.9285 18.2086C23.9749 18.3179 23.9992 18.4353 24.0001 18.554C24.0009 18.6727 23.9782 18.7904 23.9333 18.9004C23.8884 19.0104 23.8222 19.1105 23.7385 19.195L23.2195 19.7098C23.0736 19.862 22.8809 19.9613 22.6719 19.9921C22.5339 20.0104 22.3935 19.9967 22.2617 19.9521C22.1299 19.9074 22.0102 19.833 21.9121 19.7347L13.2743 11.1368C13.1241 10.9875 13.005 10.8103 12.9237 10.6152C12.8424 10.4201 12.8005 10.2109 12.8005 9.99966C12.8005 9.78843 12.8424 9.57928 12.9237 9.38416C13.005 9.18904 13.1241 9.0118 13.2743 8.86257L21.9121 0.264663C21.9963 0.180763 22.0962 0.114199 22.2062 0.0687853C22.3162 0.0233712 22.4342 0 22.5533 0C22.6724 0 22.7903 0.0233712 22.9004 0.0687853C23.0104 0.114199 23.1103 0.180763 23.1945 0.264663L23.7296 0.806136C23.8138 0.889901 23.8807 0.989381 23.9263 1.0989C23.972 1.20841 23.9955 1.3258 23.9955 1.44436C23.9955 1.56292 23.972 1.68031 23.9263 1.78983C23.8807 1.89934 23.8138 1.99883 23.7296 2.0826L16.6559 9.12532C16.424 9.35808 16.2938 9.67267 16.2938 10.0006C16.2938 10.3284 16.424 10.643 16.6559 10.8758ZM7.34385 9.13279L0.272968 2.08999C0.187168 2.00656 0.118858 1.90701 0.0720024 1.79709C0.0251465 1.68718 0.000677283 1.56909 1.38612e-05 1.44968C-0.000649561 1.33028 0.0225077 1.21192 0.0681394 1.10149C0.113771 0.991068 0.180973 0.890772 0.26584 0.806411L0.782873 0.289779C0.930109 0.138581 1.12294 0.0394596 1.332 0.00750439C1.46993 -0.0102903 1.61013 0.00366206 1.7418 0.0482906C1.87348 0.0929192 1.99311 0.167026 2.0915 0.264921L10.726 8.86295C10.8761 9.01218 10.9952 9.18942 11.0765 9.38454C11.1577 9.57966 11.1996 9.78882 11.1996 10.0001C11.1996 10.2113 11.1577 10.4204 11.0765 10.6156C10.9952 10.8107 10.8761 10.9879 10.726 11.1372L2.0915 19.7352C2.00723 19.8191 1.90717 19.8857 1.79704 19.9312C1.68691 19.9766 1.56887 20 1.44967 20C1.33046 20 1.21242 19.9766 1.10229 19.9312C0.992164 19.8857 0.892103 19.8191 0.80783 19.7352L0.272968 19.2026C0.188656 19.1187 0.121774 19.019 0.076143 18.9094C0.0305116 18.7997 0.00702718 18.6821 0.00702718 18.5634C0.00702718 18.4447 0.0305116 18.3272 0.076143 18.2175C0.121774 18.1079 0.188656 18.0082 0.272968 17.9243L7.34385 10.8833C7.57575 10.6505 7.70588 10.3359 7.70588 10.008C7.70588 9.68016 7.57575 9.36556 7.34385 9.13279Z" fill="#353849"/>
<path fill-rule="evenodd" clip-rule="evenodd" d="M65.5692 5.73918C64.8147 5.24577 63.9305 4.98846 63.0294 5.00005C62.2943 4.98831 61.5687 5.1681 60.9238 5.52179C60.5126 5.73989 60.1447 6.0316 59.8384 6.38247V0H57.4506V15.6523H59.8384V14.515C60.1412 14.859 60.5011 15.1482 60.9021 15.3697C61.5585 15.7112 62.2898 15.8831 63.0294 15.8697C63.9275 15.8819 64.8099 15.6327 65.5692 15.1523C66.331 14.6793 66.9529 14.0115 67.371 13.2175C67.8248 12.369 68.0564 11.4191 68.0439 10.4566C68.0598 9.49374 67.8281 8.54295 67.371 7.69572C66.9578 6.89259 66.3352 6.21648 65.5692 5.73918ZM65.2002 12.0871C64.9644 12.5534 64.6036 12.9448 64.1582 13.2175C63.6977 13.4868 63.1719 13.6235 62.6387 13.6128C62.0989 13.6218 61.5665 13.4853 61.0975 13.2175C60.6516 12.9454 60.2907 12.5538 60.0555 12.0871C59.8012 11.5742 59.6746 11.0074 59.6865 10.4349C59.6746 9.8624 59.8012 9.29553 60.0555 8.78269C60.2873 8.31918 60.6495 7.93376 61.0975 7.67398C61.5622 7.3939 62.0964 7.25074 62.6387 7.26094C63.1744 7.24895 63.7021 7.3924 64.1582 7.67398C64.6057 7.93435 64.9678 8.31961 65.2002 8.78269C65.4695 9.29101 65.6053 9.85955 65.5949 10.4349C65.6053 11.0102 65.4695 11.5787 65.2002 12.0871ZM39.665 13.479C40.5912 13.479 41.3726 13.3413 42.0094 13.066C42.634 12.7934 43.1946 12.3928 43.6552 11.89L45.3484 13.5857C44.6483 14.2995 43.8149 14.8682 42.8955 15.2596C41.9548 15.6654 40.8766 15.8683 39.661 15.8683C38.6126 15.8781 37.5728 15.6785 36.6022 15.2814C35.6864 14.8887 34.8577 14.3174 34.1645 13.6008C33.4714 12.8842 32.9275 12.0366 32.5646 11.1074C32.185 10.1312 31.9935 9.09179 32.0002 8.04416C31.9925 7.00268 32.1847 5.96942 32.5666 5.00066C32.9274 4.06738 33.4731 3.21695 34.171 2.50064C34.8838 1.76619 35.7386 1.18498 36.6832 0.792517C37.6278 0.400051 38.6424 0.204566 39.665 0.218006C40.8957 0.217347 41.9587 0.421565 42.854 0.83066C43.744 1.23006 44.5539 1.7886 45.2438 2.4789L43.5506 4.17456C43.0913 3.67443 42.5282 3.28115 41.9009 3.02238C41.2654 2.74701 40.5201 2.60933 39.665 2.60933C38.9581 2.60176 38.2569 2.73617 37.6028 3.00459C36.9864 3.26006 36.4314 3.64408 35.9747 4.13109C35.5156 4.62718 35.1617 5.21144 34.9347 5.84849C34.6824 6.55262 34.5575 7.29613 34.5657 8.04416C34.5573 8.79075 34.6816 9.53288 34.9327 10.2359C35.1636 10.8781 35.5175 11.4688 35.9747 11.975C36.4359 12.4523 36.99 12.8296 37.6028 13.0837C38.2569 13.3522 38.9581 13.4866 39.665 13.479ZM48.0131 5.21734L50.6821 12.0158L53.5051 5.21734H56.1534L51.3126 15.7609L49.3807 20.0001H46.7323L49.3481 14.6028L45.3865 5.21734H48.0131ZM74.7495 4.99842C75.7218 4.99776 76.5769 5.2224 77.315 5.67234C78.0568 6.11386 78.6626 6.75193 79.0654 7.51623C79.5089 8.33644 79.7333 9.25754 79.7166 10.1902C79.7163 10.3722 79.7018 10.5539 79.6732 10.7336C79.6557 10.9308 79.6267 11.1268 79.5864 11.3206H71.8141C71.8761 11.5852 71.9713 11.8408 72.0973 12.0815C72.348 12.5641 72.7324 12.9642 73.2043 13.2337C73.712 13.5032 74.2796 13.6392 74.8541 13.6289C75.3614 13.6354 75.8648 13.5393 76.3342 13.3463C76.7845 13.1674 77.1862 12.8843 77.5064 12.5202L79.0259 14.0637C78.5263 14.6531 77.8938 15.1151 77.1808 15.4116C76.4522 15.717 75.6696 15.8723 74.8798 15.8681C73.8955 15.8833 72.9238 15.6452 72.0578 15.1764C71.2229 14.7032 70.5318 14.0123 70.0578 13.1771C69.5838 12.3419 69.3447 11.3937 69.3661 10.4332C69.355 9.72014 69.4864 9.01202 69.7524 8.35048C70.0185 7.68894 70.414 7.08733 70.9155 6.58101C71.417 6.07469 72.0146 5.67386 72.673 5.40208C73.3314 5.13031 74.0374 4.99306 74.7495 4.99842ZM73.1274 7.5854C72.6799 7.84577 72.3178 8.23103 72.0854 8.6941L72.0835 8.69608C71.9727 8.90773 71.8879 9.13202 71.8309 9.36407H77.3752C77.3195 9.07793 77.227 8.80024 77.0999 8.53797C76.8966 8.11797 76.5712 7.76936 76.1664 7.53797C75.7764 7.30608 75.2916 7.19014 74.712 7.19014C74.158 7.17774 73.6109 7.31423 73.1274 7.5854ZM88.1512 5.28324C87.7063 5.08948 87.2253 4.99313 86.7402 5.00063C85.5561 5.00063 84.6661 5.41368 84.0702 6.23977C84.0609 6.25274 84.052 6.2661 84.0431 6.2796L84.0267 6.304V5.21703H81.6389V15.6529H84.0267V9.8485C84.0267 8.94994 84.2438 8.29117 84.678 7.8722C85.1121 7.45322 85.6621 7.24307 86.3278 7.24176C86.6011 7.23659 86.8732 7.28078 87.1309 7.37219C87.372 7.46548 87.5877 7.61445 87.7604 7.80698L89.3283 6.19629C89.0082 5.80849 88.6062 5.49665 88.1512 5.28324ZM98.0888 13.479C99.0157 13.479 99.7971 13.3413 100.433 13.0659C101.059 12.7936 101.62 12.393 102.081 11.89L103.774 13.5857C103.074 14.2994 102.241 14.8682 101.321 15.2596C100.381 15.6654 99.3025 15.8683 98.0868 15.8683C97.0384 15.878 95.9986 15.6785 95.0281 15.2814C94.1122 14.8887 93.2836 14.3174 92.5904 13.6008C91.8972 12.8842 91.3533 12.0366 90.9904 11.1074C90.6108 10.1312 90.4193 9.09176 90.426 8.04414C90.4176 7.00279 90.6093 5.96953 90.9904 5.00063C91.3518 4.06719 91.8982 3.21674 92.5968 2.50061C93.3093 1.76641 94.1638 1.18534 95.1081 0.792884C96.0523 0.400426 97.0666 0.204811 98.0888 0.217981C99.3189 0.217322 100.383 0.42154 101.28 0.830635C102.169 1.23024 102.978 1.78877 103.668 2.47887L101.974 4.17454C101.515 3.67441 100.952 3.28112 100.325 3.02235C99.6893 2.74699 98.944 2.60931 98.0888 2.60931C97.3819 2.60174 96.6807 2.73614 96.0266 3.00457C95.4102 3.26004 94.8552 3.64406 94.3985 4.13106C93.9387 4.62698 93.5842 5.21126 93.3566 5.84847C93.1043 6.55259 92.9793 7.2961 92.9875 8.04414C92.9798 8.79085 93.1048 9.53298 93.3566 10.2359C93.5874 10.878 93.9414 11.4688 94.3985 11.975C94.8598 12.4522 95.4139 12.8296 96.0266 13.0837C96.6807 13.3521 97.3819 13.4865 98.0888 13.479ZM112.937 5.71818C112.091 5.23454 111.132 4.9868 110.158 5.00078C109.189 4.98879 108.235 5.24453 107.401 5.73992C106.59 6.20599 105.91 6.87198 105.428 7.67472C104.944 8.50603 104.696 9.45373 104.71 10.4159C104.697 11.3838 104.945 12.3372 105.426 13.1767C105.907 13.9914 106.586 14.6712 107.399 15.153C108.02 15.5197 108.706 15.7595 109.42 15.8586C110.133 15.9577 110.859 15.9141 111.556 15.7303C112.252 15.5465 112.905 15.2261 113.477 14.7878C114.05 14.3495 114.529 13.8019 114.888 13.1767C115.383 12.3418 115.639 11.3867 115.628 10.4159C115.642 9.45179 115.386 8.50313 114.89 7.6767C114.425 6.86148 113.75 6.18541 112.937 5.71818ZM112.785 12.0423C112.545 12.5131 112.176 12.9054 111.721 13.1728C111.245 13.4421 110.705 13.5786 110.158 13.5681C109.612 13.5752 109.073 13.4389 108.595 13.1728C108.147 12.8974 107.779 12.5071 107.532 12.0423C107.279 11.5367 107.152 10.9773 107.162 10.4119C107.15 9.85332 107.277 9.30049 107.532 8.80319C107.781 8.35079 108.149 7.975 108.595 7.71622C109.069 7.43781 109.609 7.29493 110.158 7.30317C110.707 7.29134 111.249 7.43447 111.721 7.71622C112.167 7.97528 112.535 8.351 112.785 8.80319C113.054 9.29585 113.19 9.85039 113.179 10.4119C113.188 10.9808 113.053 11.5426 112.785 12.0443V12.0423ZM123.105 5.00073C123.845 4.9884 124.572 5.20059 125.189 5.60943C125.792 5.99352 126.286 6.52552 126.626 7.1549C126.963 7.75102 127.14 8.42447 127.139 9.10946V15.653H124.751V9.63121C124.751 8.93621 124.528 8.36374 124.082 7.9138C123.648 7.46452 123.084 7.23988 122.389 7.23988C121.957 7.23235 121.531 7.33722 121.152 7.54423C120.796 7.74178 120.502 8.03556 120.305 8.39207C120.098 8.7718 119.994 9.19878 120.001 9.63121V15.653H117.613V5.21812H120.001V6.39896C120.287 6.05484 120.633 5.76527 121.021 5.54421C121.655 5.17888 122.375 4.99114 123.105 5.00073ZM137.143 5.60943C136.526 5.20059 135.799 4.9884 135.059 5.00073C134.329 4.99114 133.609 5.17888 132.976 5.54421C132.586 5.76497 132.239 6.05456 131.952 6.39896V5.21812H129.564V15.653H131.952V9.63121C131.945 9.19878 132.049 8.7718 132.256 8.39207C132.453 8.03556 132.747 7.74178 133.103 7.54423C133.482 7.33722 133.908 7.23235 134.34 7.23988C135.035 7.23988 135.599 7.46452 136.033 7.9138C136.483 8.36308 136.707 8.93555 136.706 9.63121V15.653H139.094V9.10946C139.093 8.42309 138.913 7.74888 138.573 7.15292C138.235 6.5251 137.743 5.99388 137.143 5.60943ZM146.233 4.99842C147.206 4.99776 148.061 5.2224 148.799 5.67234C149.54 6.11442 150.146 6.75235 150.549 7.51623C150.993 8.33644 151.217 9.25754 151.201 10.1902C151.2 10.3722 151.185 10.5538 151.157 10.7336C151.139 10.9308 151.11 11.1267 151.07 11.3206H143.298C143.36 11.5852 143.455 11.8408 143.581 12.0815C143.832 12.5641 144.216 12.9642 144.688 13.2337C145.196 13.5033 145.764 13.6394 146.338 13.6289C146.845 13.6352 147.349 13.5391 147.818 13.3463C148.268 13.1669 148.67 12.8839 148.99 12.5202L150.51 14.0637C150.01 14.6527 149.377 15.1146 148.665 15.4116C147.936 15.7168 147.153 15.8721 146.364 15.8681C145.379 15.8835 144.408 15.6453 143.542 15.1764C142.707 14.7032 142.016 14.0123 141.542 13.1771C141.068 12.3419 140.829 11.3937 140.85 10.4332C140.839 9.72014 140.97 9.01202 141.236 8.35048C141.502 7.68894 141.898 7.08733 142.399 6.58101C142.901 6.07469 143.498 5.67386 144.157 5.40208C144.815 5.13031 145.521 4.99306 146.233 4.99842ZM144.611 7.5854C144.163 7.84518 143.801 8.23059 143.569 8.6941L143.567 8.69608C143.456 8.90758 143.372 9.13193 143.316 9.36407H148.858C148.803 9.07786 148.711 8.80011 148.584 8.53797C148.38 8.11818 148.055 7.76966 147.65 7.53797C147.259 7.30608 146.774 7.19014 146.196 7.19014C145.642 7.1776 145.095 7.31409 144.611 7.5854ZM156.335 7.71763C156.816 7.4373 157.364 7.29443 157.92 7.30458C158.398 7.2986 158.871 7.39496 159.309 7.58719C159.74 7.75815 160.12 8.03474 160.416 8.39155L161.979 6.80458C161.49 6.22582 160.872 5.77023 160.174 5.47452C159.466 5.15251 158.695 4.98929 157.917 4.99626C156.937 4.98394 155.97 5.23144 155.117 5.71366C154.303 6.18034 153.629 6.85571 153.163 7.6702C152.678 8.50834 152.431 9.46274 152.447 10.4311C152.434 11.399 152.682 12.3525 153.163 13.192C153.629 14.0065 154.303 14.6818 155.117 15.1485C155.886 15.5707 156.74 15.8135 157.616 15.8586C158.491 15.9038 159.366 15.7502 160.174 15.4094C160.868 15.1014 161.484 14.6407 161.976 14.0616L160.413 12.4746C160.114 12.8333 159.735 13.1163 159.306 13.3007C158.865 13.4786 158.393 13.5673 157.917 13.5616C157.363 13.5705 156.817 13.4342 156.332 13.1663C155.888 12.8952 155.521 12.5131 155.268 12.0576C155.016 11.5519 154.889 10.9925 154.899 10.4271C154.886 9.86144 155.013 9.30119 155.268 8.79669C155.52 8.34681 155.888 7.97382 156.335 7.71763ZM167.504 5.21803H170V7.39196H167.504V15.6529H165.116V7.39196H162.619V5.21803H165.116V0.870166H167.504V5.21803Z" fill="#353849"/>
</svg>
