<svg width="44" height="10" viewBox="0 0 44 10" fill="none" xmlns="http://www.w3.org/2000/svg">
<path fill-rule="evenodd" clip-rule="evenodd" d="M27.6969 5.0421L31.4828 9.87295C31.5132 9.91106 31.5517 9.94156 31.5953 9.96214C31.6389 9.98271 31.6865 9.99282 31.7345 9.9917H33.8543C33.907 9.9974 33.9601 9.9873 34.0073 9.96262C34.0545 9.93793 34.0937 9.89972 34.1201 9.85263C34.1466 9.80554 34.1592 9.75159 34.1563 9.69732C34.1535 9.64304 34.1353 9.59078 34.1041 9.54688L30.5791 5.0421C30.4927 4.93243 30.4478 4.79451 30.4525 4.65361C30.4572 4.51272 30.5113 4.37829 30.6048 4.27497L34.038 0.461931C34.0741 0.419323 34.0968 0.366466 34.103 0.310352C34.1092 0.254238 34.0987 0.197509 34.0728 0.147666C34.0469 0.0978229 34.0069 0.0572136 33.9581 0.031209C33.9092 0.00520445 33.8538 -0.00497025 33.7992 0.0020287H31.7216C31.677 0.001347 31.6327 0.0102115 31.5916 0.0280598C31.5505 0.045908 31.5134 0.0723493 31.4828 0.105696L27.7226 4.27309C27.6294 4.3769 27.5755 4.51159 27.5708 4.6527C27.5661 4.79381 27.6108 4.93197 27.6969 5.0421ZM12.1569 0.00256348H10.8159C10.5775 0.00256348 10.3843 0.200874 10.3843 0.445502V9.5493C10.3843 9.79393 10.5775 9.99224 10.8159 9.99224H12.1569C12.3953 9.99224 12.5886 9.79393 12.5886 9.5493V0.445502C12.5886 0.200874 12.3953 0.00256348 12.1569 0.00256348ZM44.0002 5.35827V4.48181C44.0002 4.22989 43.8011 4.02568 43.5556 4.02568H38.0155C37.77 4.02568 37.5709 4.22989 37.5709 4.48181V5.35827C37.5709 5.61018 37.77 5.8144 38.0155 5.8144H43.5556C43.8011 5.8144 44.0002 5.61018 44.0002 5.35827ZM44.0002 8.65879V9.53525C44.0002 9.78716 43.8011 9.99137 43.5556 9.99137H38.0155C37.77 9.99137 37.5709 9.78716 37.5709 9.53525V8.65879C37.5709 8.40687 37.77 8.20266 38.0155 8.20266H43.5556C43.8011 8.20266 44.0002 8.40687 44.0002 8.65879ZM43.9981 1.33515V0.458692C43.9981 0.206778 43.799 0.00256348 43.5535 0.00256348H38.0134C37.7678 0.00256348 37.5688 0.206778 37.5688 0.458692V1.33515C37.5688 1.58706 37.7678 1.79128 38.0134 1.79128H43.5535C43.799 1.79128 43.9981 1.58706 43.9981 1.33515ZM20.9543 0.00256485C22.3136 0.00256485 24.1303 0.977028 24.1615 4.43383V4.4508V9.61527C24.1615 9.71525 24.1228 9.81113 24.0539 9.88183C23.985 9.95252 23.8916 9.99224 23.7941 9.99224H22.3246C22.2272 9.99224 22.1337 9.95252 22.0648 9.88183C21.9959 9.81113 21.9572 9.71525 21.9572 9.61527V4.90316C21.9572 2.26438 20.6934 2.26438 20.1203 2.26438H18.8345C18.737 2.26438 18.6436 2.30409 18.5747 2.37479C18.5058 2.44548 18.4671 2.54137 18.4671 2.64135V9.61527C18.4671 9.71525 18.4284 9.81113 18.3595 9.88183C18.2906 9.95252 18.1971 9.99224 18.0997 9.99224H16.6301C16.5327 9.99224 16.4393 9.95252 16.3704 9.88183C16.3015 9.81113 16.2628 9.71525 16.2628 9.61527V1.30122C16.2625 1.13061 16.2951 0.961627 16.3586 0.803954C16.4221 0.646282 16.5153 0.503019 16.6329 0.382378C16.7505 0.261737 16.8901 0.16609 17.0438 0.100914C17.1974 0.0357383 17.3621 0.00231669 17.5284 0.00256485H20.9543ZM2.04589 0.158096C1.94909 0.0587689 1.8178 0.00296783 1.6809 0.00296783H0.516288C0.37939 0.00296783 0.248098 0.0587689 0.151297 0.158096C0.0544951 0.257423 0.00011268 0.392139 0.00011268 0.532609V5.64054C0.00011268 8.16623 1.19411 10.0002 4.24708 10.0002H6.29893C6.43582 10.0002 6.56712 9.94438 6.66392 9.84505C6.76072 9.74572 6.8151 9.61101 6.8151 9.47054V8.13418C6.8151 7.99371 6.76072 7.859 6.66392 7.75967C6.56712 7.66034 6.43582 7.60454 6.29893 7.60454H4.36648C2.56446 7.60454 2.19707 6.8393 2.19707 5.62169V0.532609C2.19707 0.392139 2.14269 0.257423 2.04589 0.158096Z" fill="#5D606D"/>
</svg>
